/* XPM */
static char * digit4_xpm[] = {
"6 10 2 1",
" 	c #FFFF8000FFFF",
".	c None",
"  ..  ",
"  ..  ",
"  ..  ",
"  ..  ",
"      ",
"      ",
"....  ",
"....  ",
"....  ",
"....  "};
