/* XPM */
static char * lettuce3_xpm[] = {
"24 16 2 1",
" 	c None",
".	c #51EF17",
"  .... ....             ",
"..................      ",
".....................   ",
"...... ..............   ",
".....................   ",
"........................",
"........................",
"........................",
"........................",
"........................",
"......................  ",
"......................  ",
"......................  ",
"...................     ",
".................       ",
".................       "};
