/* XPM */
static char *burgerspace[] = {
/* columns rows colors chars-per-pixel */
"32 32 9 1",
"  c black",
". c #26A55D",
"X c #AA5F25",
"o c #EA4F17",
"O c #E2AA76",
"+ c gray99",
"@ c #FEFEFE",
"# c gray100",
"$ c None",
/* pixels */
"$$$$$$$                  $$$$$$$",
"$$$$$$ ################## $$$$$$",
"$$$$$$ ################## $$$$$$",
"$$$$$$ #######oooo####### $$$$$$",
"$$$$$$$  #####o##o#####  $$$$$$$",
"$$$$$$$$ #####oooo##### $$$$$$$$",
"$$$$$$$$ #####o######## $$$$$$$$",
"$$$$$$$$ ############## $$$$$$$$",
"$$$$$$$$ ############## $$$$$$$$",
"$$$$$$$$ ##OOOOOOOOOO## $$$$$$$$",
"$$$$$$$$ ##OXXOOOOXXO## $$$$$$$$",
"$$$$$$$$ OOOXXOOOOXXOOO $$$$$$$$",
"$$$$$$$$ OOOOOOOOOOOOOO $$$$$$$$",
"$$$$$$$$ OOOOOOOOOOOOOO $$$$$$$$",
"$$$$$$  ###OOOXXXXOOO###  $$$$$$",
"$$$$  #####OOOOOOOOOO#####  $$$$",
"$$$ ######################## $$$",
"$$ ##########oo##oo########## $$",
"$ ###########oo##oo########### $",
" ######  ##############  ###### ",
" ##### $ ############## $ ##### ",
" ###  $$ ####oo##oo#### $$  ### ",
" OOO $$ #####oo##oo##### $$ OOO ",
" OO $$$ ################ $$$ OO ",
"$  $$$$ ################ $$$$  $",
"$$$$$$$ ################ $$$$$$$",
"$$$$$$$$   ...    ...   $$$$$$$$",
"$$$$$$$$$$ ... $$ ... $$$$$$$$$$",
"$$$$$$$$   ... $$ ...   $$$$$$$$",
"$$$$$$$ XXXXXX $$ XXXXXX $$$$$$$",
"$$$$$$$ XXXXXX $$ XXXXXX $$$$$$$",
"$$$$$$$$      $$$$      $$$$$$$$"
};
